<svg width="24" height="24" viewBox="0 0 24 24" fill="none" xmlns="http://www.w3.org/2000/svg">
<g clip-path="url(#clip0_94_33)">
<path d="M12.6 4.69919C12.522 4.70004 12.4447 4.68552 12.3723 4.65647C12.3 4.62741 12.2341 4.5844 12.1784 4.52987C12.1227 4.47534 12.0782 4.41037 12.0476 4.33867C12.017 4.26697 12.0008 4.18995 12 4.11199C12 1.83999 13.8816 -6.71713e-06 16.1984 -6.71713e-06C16.2764 -0.00106352 16.3539 0.0133099 16.4263 0.0422872C16.4987 0.0712644 16.5647 0.114274 16.6205 0.168843C16.6762 0.223412 16.7207 0.288464 16.7512 0.36026C16.7817 0.432055 16.7978 0.509178 16.7984 0.587193C16.7984 2.85919 14.9184 4.69919 12.6 4.69919Z" fill="black"/>
<path d="M12.5999 4.69919C12.5219 4.70004 12.4446 4.68552 12.3722 4.65647C12.2999 4.62741 12.234 4.58439 12.1783 4.52987C12.1226 4.47534 12.0781 4.41037 12.0475 4.33867C12.0169 4.26697 12.0007 4.18995 11.9999 4.11199C11.9999 1.83999 13.8815 -6.71714e-06 16.1983 -6.71714e-06C16.2763 -0.00106352 16.3538 0.0133099 16.4262 0.0422872C16.4986 0.0712644 16.5646 0.114274 16.6204 0.168843C16.6762 0.223412 16.7206 0.288464 16.7511 0.36026C16.7816 0.432055 16.7977 0.509178 16.7983 0.587193C16.7983 2.85919 14.9183 4.69919 12.5999 4.69919ZM21.3599 17.0688C21.5919 17.2384 21.6671 17.5488 21.5359 17.8016C19.4239 21.9392 17.7391 24 16.1999 24C15.4831 24 14.7791 23.7728 14.0927 23.3312C13.6 23.0149 13.0295 22.8409 12.4442 22.8285C11.8589 22.8161 11.2815 22.9657 10.7759 23.2608C9.9439 23.7488 9.1519 24 8.3999 24C6.1359 24 2.3999 17.1728 2.3999 13.4272C2.3999 9.42719 4.5423 6.37759 7.7999 6.37759C9.3327 6.37759 10.6559 6.59839 11.7679 7.04799C12.2383 7.23679 12.7711 7.22399 13.2303 7.00799C14.1327 6.58239 15.3231 6.37759 16.7983 6.37759C18.6015 6.37759 20.1743 7.25759 21.4799 8.96159C21.5271 9.02304 21.5615 9.09334 21.5811 9.16833C21.6007 9.24332 21.605 9.32148 21.5938 9.39817C21.5826 9.47485 21.5561 9.54852 21.516 9.61479C21.4758 9.68106 21.4227 9.7386 21.3599 9.78399C19.9023 10.856 19.1999 12.0576 19.1999 13.4272C19.1999 14.7952 19.9023 15.9984 21.3599 17.0688Z" fill="black"/>
<path d="M21.3599 17.0688C21.5919 17.2384 21.6671 17.5488 21.5359 17.8016C19.4239 21.9392 17.7391 24 16.1999 24C15.4831 24 14.7791 23.7728 14.0927 23.3312C13.6 23.0149 13.0295 22.8409 12.4442 22.8285C11.8589 22.8161 11.2815 22.9657 10.7759 23.2608C9.9439 23.7488 9.1519 24 8.3999 24C6.1359 24 2.3999 17.1728 2.3999 13.4272C2.3999 9.42719 4.5423 6.37759 7.7999 6.37759C9.3327 6.37759 10.6559 6.59839 11.7679 7.04799C12.2383 7.23679 12.7711 7.22399 13.2303 7.00799C14.1327 6.58239 15.3231 6.37759 16.7983 6.37759C18.6015 6.37759 20.1743 7.25759 21.4799 8.96159C21.5271 9.02304 21.5615 9.09334 21.5811 9.16833C21.6007 9.24333 21.605 9.32148 21.5938 9.39817C21.5826 9.47485 21.5561 9.54852 21.516 9.61479C21.4758 9.68106 21.4227 9.7386 21.3599 9.78399C19.9023 10.856 19.1999 12.0576 19.1999 13.4272C19.1999 14.7952 19.9023 15.9984 21.3599 17.0688Z" fill="black"/>
</g>
<defs>
<clipPath id="clip0_94_33">
<rect width="24" height="24" fill="white"/>
</clipPath>
</defs>
</svg>
