<svg width="24" height="24" viewBox="0 0 24 24" fill="none" xmlns="http://www.w3.org/2000/svg">
<rect width="24" height="24" rx="12" fill="#A8DADC"/>
<path fill-rule="evenodd" clip-rule="evenodd" d="M10.9378 12L7.21999 8.28222C6.92667 7.98889 6.92667 7.51332 7.21999 7.21999C7.51332 6.92667 7.98889 6.92667 8.28222 7.21999L12 10.9378L15.7178 7.21999C16.0111 6.92667 16.4867 6.92667 16.78 7.21999C17.0733 7.51332 17.0733 7.98889 16.78 8.28222L13.0622 12L16.78 15.7178C17.0733 16.0111 17.0733 16.4867 16.78 16.78C16.4867 17.0733 16.0111 17.0733 15.7178 16.78L12 13.0622L8.28222 16.78C7.98889 17.0733 7.51332 17.0733 7.21999 16.78C6.92667 16.4867 6.92667 16.0111 7.21999 15.7178L10.9378 12Z" fill="#1D3557"/>
</svg>
