<svg width="36" height="36" viewBox="0 0 36 36" fill="none" xmlns="http://www.w3.org/2000/svg">
<path d="M18 36C27.9411 36 36 27.9411 36 18C36 8.05887 27.9411 0 18 0C8.05887 0 0 8.05887 0 18C0 27.9411 8.05887 36 18 36Z" fill="white"/>
<path d="M14.5567 22.314L10.8286 18.4506C10.6277 18.2425 10.3553 18.1255 10.0712 18.1255C9.78708 18.1255 9.51462 18.2425 9.31374 18.4506C9.11285 18.6588 9 18.9412 9 19.2356C9 19.3813 9.02771 19.5257 9.08154 19.6604C9.13537 19.795 9.21427 19.9174 9.31374 20.0205L13.8046 24.6743C14.2236 25.1086 14.9005 25.1086 15.3195 24.6743L26.6863 12.895C26.8871 12.6868 27 12.4044 27 12.11C27 11.8156 26.8871 11.5333 26.6863 11.3251C26.4854 11.117 26.2129 11 25.9288 11C25.6447 11 25.3723 11.117 25.1714 11.3251L14.5567 22.314Z" fill="#1D3557"/>
</svg>
